{"glyphs":{"0":{"ha":1111,"x_min":0,"x_max":0,"o":"m 556 -22 b 1056 556 849 -22 1056 217 b 556 1133 1056 894 849 1133 b 56 556 263 1133 56 894 b 556 -22 56 217 263 -22 z m 556 144 b 264 556 385 144 264 314 b 556 967 264 797 385 967 b 847 556 726 967 847 797 b 556 144 847 314 726 144 z "},"1":{"ha":674,"x_min":0,"x_max":0,"o":"m 604 1111 l 35 1111 l 35 944 l 410 944 l 410 0 l 604 0 z "},"2":{"ha":1000,"x_min":0,"x_max":0,"o":"m 35 0 l 938 0 l 938 194 l 229 194 b 392 399 229 286 283 353 l 690 524 b 965 867 874 600 965 713 b 640 1111 965 1024 849 1111 l 63 1111 l 63 944 l 640 944 b 757 864 721 944 757 918 b 618 704 757 793 715 744 l 332 585 b 35 194 133 501 35 372 z "},"3":{"ha":1021,"x_min":0,"x_max":0,"o":"m 758 642 b 951 911 897 726 951 800 b 665 1111 951 1031 856 1111 l 49 1111 l 49 944 l 685 944 b 743 901 718 944 743 932 b 639 797 743 864 717 844 l 308 599 l 410 433 l 554 519 b 757 240 731 350 757 290 b 665 167 757 193 728 167 l 35 167 l 35 0 l 690 0 b 965 226 869 0 965 89 b 726 622 965 347 910 435 z "},"4":{"ha":1054,"x_min":0,"x_max":0,"o":"m 210 404 l 613 1111 l 421 1111 l 110 567 b 35 363 65 488 35 439 b 219 190 35 247 119 190 l 640 190 l 640 0 l 835 0 l 835 190 l 1019 190 l 1019 357 l 835 357 l 835 833 l 640 833 l 640 357 l 228 357 b 210 404 206 357 193 374 z "},"5":{"ha":1000,"x_min":0,"x_max":0,"o":"m 35 0 l 640 0 b 965 258 849 0 965 101 b 690 588 965 413 874 511 l 392 713 b 257 917 283 758 257 825 l 938 917 l 938 1111 l 63 1111 l 63 917 b 332 526 63 739 133 610 l 618 407 b 757 261 715 367 757 332 b 640 167 757 207 721 167 l 35 167 z "},"6":{"ha":1081,"x_min":0,"x_max":0,"o":"m 642 0 l 439 0 b 56 328 203 0 56 126 l 56 508 b 100 525 56 544 74 550 b 264 442 142 490 199 458 l 264 328 b 439 167 264 225 326 167 l 642 167 b 817 328 754 167 817 225 b 642 490 817 432 754 490 l 439 490 b 56 799 194 490 56 601 b 439 1111 56 999 194 1111 l 942 1111 l 942 944 l 439 944 b 250 799 319 944 250 892 b 439 657 250 708 319 657 l 642 657 b 1025 328 878 657 1025 531 b 642 0 1025 126 878 0 z "},"7":{"ha":953,"x_min":0,"x_max":0,"o":"m 35 917 l 751 917 b 268 0 750 717 268 421 l 463 0 b 918 917 463 357 918 619 l 918 1111 l 35 1111 z "},"8":{"ha":1082,"x_min":0,"x_max":0,"o":"m 56 306 l 56 501 b 101 518 56 539 78 542 b 264 424 142 476 192 447 l 264 306 b 439 144 264 207 332 144 l 643 144 b 818 306 750 144 818 207 b 643 468 818 406 750 468 l 453 468 b 69 783 207 468 69 581 b 453 1111 69 993 207 1111 l 629 1111 b 1013 783 865 1111 1013 985 l 1013 622 b 964 601 1013 586 992 579 b 804 685 919 639 867 665 l 804 783 b 629 944 804 882 736 944 l 453 944 b 278 783 340 944 278 886 b 453 635 278 688 340 635 l 643 635 b 1026 306 879 635 1026 508 b 643 -22 1026 104 879 -22 l 439 -22 b 56 306 203 -22 56 104 z "},"9":{"ha":1081,"x_min":0,"x_max":0,"o":"m 439 1111 l 642 1111 b 1025 783 878 1111 1025 985 l 1025 603 b 981 586 1025 567 1007 561 b 817 669 939 621 882 653 l 817 783 b 642 944 817 886 754 944 l 439 944 b 264 783 326 944 264 886 b 439 621 264 679 326 621 l 642 621 b 1025 313 886 621 1025 510 b 642 0 1025 113 886 0 l 139 0 l 139 167 l 642 167 b 831 313 761 167 831 219 b 642 454 831 403 761 454 l 439 454 b 56 783 203 454 56 581 b 439 1111 56 985 203 1111 z "}," ":{"ha":472,"x_min":0,"x_max":0,"o":""}," ":{"ha":472,"x_min":0,"x_max":0,"o":""},"A":{"ha":1028,"x_min":0,"x_max":0,"o":"m 219 447 b 408 517 279 483 353 510 l 514 808 l 639 463 l 588 463 b 49 96 296 463 147 369 l 14 0 l 221 0 l 261 111 b 540 296 311 250 394 296 l 700 296 l 807 0 l 1014 0 l 611 1111 l 417 1111 l 185 472 b 219 447 172 436 188 426 z "},"B":{"ha":1074,"x_min":0,"x_max":0,"o":"m 628 649 l 458 649 b 69 288 208 649 69 519 l 69 0 l 656 0 b 1039 324 892 0 1039 122 b 917 567 1039 428 1000 511 b 1011 797 981 622 1011 700 b 628 1111 1011 999 874 1111 l 69 1111 l 69 944 l 628 944 b 803 797 740 944 803 892 b 628 649 803 701 740 649 z m 264 167 l 264 288 b 458 482 264 413 333 482 l 656 482 b 831 324 768 482 831 425 b 656 167 831 224 768 167 z "},"C":{"ha":1060,"x_min":0,"x_max":0,"o":"m 1025 154 l 875 276 b 611 144 813 193 721 144 b 264 556 407 144 264 314 b 611 967 264 797 407 967 b 856 858 710 967 794 926 l 985 997 b 611 1133 889 1083 760 1133 b 56 556 285 1133 56 894 b 611 -22 56 217 285 -22 b 1025 154 782 -22 926 43 z "},"D":{"ha":1097,"x_min":0,"x_max":0,"o":"m 464 1111 l 69 1111 l 69 0 l 464 0 b 1042 556 814 0 1042 217 b 464 1111 1042 894 801 1111 z m 264 167 l 264 944 l 464 944 b 833 556 690 944 833 797 b 464 167 833 314 696 167 z "},"E":{"ha":935,"x_min":0,"x_max":0,"o":"m 872 704 l 458 704 b 69 315 208 704 69 565 l 69 0 l 900 0 l 900 167 l 264 167 l 264 343 b 458 538 264 468 333 538 l 872 538 z m 69 1111 l 69 944 l 900 944 l 900 1111 z "},"F":{"ha":935,"x_min":0,"x_max":0,"o":"m 872 621 l 458 621 b 69 260 208 621 69 492 l 69 0 l 264 0 l 264 260 b 458 454 264 385 333 454 l 872 454 z m 69 1111 l 69 944 l 900 944 l 900 1111 z "},"G":{"ha":1094,"x_min":0,"x_max":0,"o":"m 1025 154 l 1025 636 l 553 636 l 553 469 l 831 469 l 831 228 b 611 144 771 174 697 144 b 264 556 407 144 264 314 b 611 967 264 797 407 967 b 856 858 710 967 794 926 l 985 997 b 611 1133 889 1083 760 1133 b 56 556 285 1133 56 894 b 611 -22 56 217 285 -22 b 1025 154 782 -22 926 43 z "},"H":{"ha":1083,"x_min":0,"x_max":0,"o":"m 264 0 l 264 322 b 457 510 265 444 335 510 l 819 510 l 819 0 l 1014 0 l 1014 1111 l 819 1111 l 819 676 l 458 676 b 264 618 372 676 314 658 l 264 1111 l 69 1111 l 69 0 z "},"I":{"ha":333,"x_min":0,"x_max":0,"o":"m 69 1111 l 69 0 l 264 0 l 264 1111 z "},"J":{"ha":924,"x_min":0,"x_max":0,"o":"m 660 438 b 456 144 660 242 592 144 b 229 438 310 144 229 250 l 35 438 b 465 -22 35 143 193 -22 b 854 447 708 -22 854 158 l 854 1111 l 660 1111 z "},"K":{"ha":1056,"x_min":0,"x_max":0,"o":"m 69 0 l 264 0 l 264 254 b 436 510 264 364 314 439 l 801 0 l 1042 0 l 611 599 b 942 1111 854 733 921 869 l 747 1111 b 458 724 747 928 671 829 b 264 603 385 688 318 653 l 264 1111 l 69 1111 z "},"L":{"ha":907,"x_min":0,"x_max":0,"o":"m 264 1111 l 69 1111 l 69 0 l 872 0 l 872 167 l 264 167 z "},"M":{"ha":1392,"x_min":0,"x_max":0,"o":"m 69 0 l 264 0 l 264 917 b 374 707 307 917 319 878 l 599 0 l 793 0 l 1018 707 b 1128 917 1072 878 1085 917 l 1128 0 l 1322 0 l 1322 1111 l 1128 1111 b 863 861 994 1111 921 1042 l 696 338 l 529 861 b 264 1111 471 1042 397 1111 l 69 1111 z "},"N":{"ha":1083,"x_min":0,"x_max":0,"o":"m 69 867 l 69 0 l 236 0 l 236 867 b 289 967 236 942 260 967 b 369 853 319 967 346 944 l 522 254 b 847 0 564 90 686 0 l 1014 0 l 1014 1111 l 847 1111 l 847 194 b 710 307 768 194 732 219 l 564 875 b 296 1133 519 1049 428 1133 b 69 867 153 1133 69 1042 z "},"O":{"ha":1222,"x_min":0,"x_max":0,"o":"m 611 -22 b 1167 556 938 -22 1167 217 b 611 1133 1167 894 938 1133 b 56 556 285 1133 56 894 b 611 -22 56 217 285 -22 z m 611 144 b 264 556 407 144 264 314 b 611 967 264 797 407 967 b 958 556 815 967 958 797 b 611 144 958 314 815 144 z "},"P":{"ha":1074,"x_min":0,"x_max":0,"o":"m 656 621 l 458 621 b 69 260 208 621 69 492 l 69 0 l 264 0 l 264 260 b 458 454 264 385 333 454 l 656 454 b 1039 783 892 454 1039 581 b 656 1111 1039 985 892 1111 l 69 1111 l 69 944 l 656 944 b 831 783 768 944 831 886 b 656 621 831 679 768 621 z "},"Q":{"ha":1222,"x_min":0,"x_max":0,"o":"m 651 147 l 890 47 b 1167 556 1061 140 1167 325 b 611 1133 1167 894 938 1133 b 56 556 285 1133 56 894 b 642 -143 56 242 226 19 b 1006 -347 886 -239 1006 -278 l 1200 -347 b 751 24 1200 -144 1007 -72 b 264 556 399 154 264 301 b 611 967 264 797 407 967 b 958 556 815 967 958 797 b 651 147 958 331 833 168 z "},"R":{"ha":1053,"x_min":0,"x_max":0,"o":"m 628 649 l 458 649 b 69 288 208 649 69 519 l 69 0 l 264 0 l 264 288 b 458 482 264 413 333 482 l 479 482 l 804 0 l 1039 0 l 710 486 b 1011 797 906 510 1011 618 b 628 1111 1011 999 874 1111 l 69 1111 l 69 944 l 628 944 b 803 797 740 944 803 892 b 628 649 803 701 740 649 z "},"S":{"ha":1028,"x_min":0,"x_max":0,"o":"m 243 875 b 392 725 243 819 274 785 l 707 567 b 993 233 931 454 993 360 b 689 0 993 88 883 0 l 35 0 l 35 167 l 699 167 b 799 232 767 167 799 189 b 617 394 799 275 776 314 l 300 554 b 49 875 125 643 49 742 b 354 1111 49 1025 156 1111 l 938 1111 l 938 944 l 326 944 b 243 875 281 944 243 921 z "},"T":{"ha":1014,"x_min":0,"x_max":0,"o":"m 799 944 l 979 944 l 979 1111 l 35 1111 l 35 944 l 469 944 b 410 725 431 889 410 817 l 410 0 l 604 0 l 604 725 b 799 944 604 881 668 944 z "},"U":{"ha":1083,"x_min":0,"x_max":0,"o":"m 819 438 b 542 144 819 242 728 144 b 264 438 356 144 264 242 l 264 1111 l 69 1111 l 69 460 b 543 -22 69 143 239 -22 b 1014 460 844 -22 1014 143 l 1014 1111 l 819 1111 z "},"V":{"ha":1028,"x_min":0,"x_max":0,"o":"m 417 0 l 611 0 l 1014 1111 l 807 1111 l 514 303 l 221 1111 l 14 1111 z "},"W":{"ha":1397,"x_min":0,"x_max":0,"o":"m 361 0 l 556 0 l 661 339 b 699 394 675 381 685 394 b 739 329 715 394 725 378 l 842 0 l 1036 0 l 1383 1111 l 1179 1111 l 939 343 l 911 431 b 744 603 881 532 822 589 l 903 1111 l 699 1111 l 458 342 l 218 1111 l 14 1111 z "},"X":{"ha":972,"x_min":0,"x_max":0,"o":"m 729 0 l 958 0 l 614 556 l 958 1111 l 731 1111 l 500 740 l 269 1111 l 42 1111 l 372 578 l 14 0 l 243 0 l 486 393 z "},"Y":{"ha":972,"x_min":0,"x_max":0,"o":"m 743 1111 l 496 603 l 486 582 l 229 1111 l 14 1111 l 399 317 b 389 171 392 271 389 224 l 389 0 l 583 0 l 583 171 b 674 524 583 308 606 385 l 958 1111 z "},"Z":{"ha":1042,"x_min":0,"x_max":0,"o":"m 76 944 l 785 944 b 601 713 785 850 750 789 l 321 567 b 35 233 99 451 35 360 b 339 0 35 88 144 0 l 1007 0 l 1007 167 l 329 167 b 229 232 261 167 229 189 b 411 394 229 275 253 313 l 683 536 b 979 944 908 654 979 774 l 979 1111 l 76 1111 z "},"":{"ha":1056,"x_min":0,"x_max":0,"o":"m 69 0 l 264 0 l 264 254 b 517 551 265 385 335 467 b 942 1111 836 703 918 840 l 747 1111 b 458 724 747 928 671 829 b 264 603 385 688 318 653 l 264 1111 l 69 1111 z m 651 542 l 522 478 b 496 428 489 461 475 457 l 1051 -350 l 1292 -350 z "},"":{"ha":1053,"x_min":0,"x_max":0,"o":"m 628 649 l 458 649 b 69 288 208 649 69 519 l 69 0 l 264 0 l 264 288 b 458 482 264 413 333 482 l 628 482 b 1011 797 874 482 1011 594 b 628 1111 1011 999 874 1111 l 69 1111 l 69 944 l 628 944 b 803 797 740 944 803 892 b 628 649 803 701 740 649 z m 765 413 l 592 413 b 565 363 558 413 546 392 l 1042 -350 l 1276 -350 z "},"":{"ha":2018,"x_min":0,"x_max":0,"o":"m 69 867 l 69 0 l 236 0 l 236 867 b 289 967 236 942 260 967 b 369 853 319 967 346 944 l 522 254 b 847 0 564 90 686 0 l 1014 0 l 1014 788 b 1167 944 1014 888 1068 944 l 1983 944 l 1983 1111 l 1167 1111 b 847 788 961 1111 847 994 l 847 194 b 710 307 768 194 732 219 l 564 875 b 296 1133 519 1049 428 1133 b 69 867 153 1133 69 1042 z m 1956 704 l 1542 704 b 1153 315 1292 704 1153 565 l 1153 0 l 1983 0 l 1983 167 l 1347 167 l 1347 343 b 1542 538 1347 468 1417 538 l 1956 538 z "},"":{"ha":2018,"x_min":0,"x_max":0,"o":"m 69 867 l 69 0 l 236 0 l 236 867 b 289 967 236 942 260 967 b 369 853 319 967 346 944 l 522 254 b 847 0 564 90 686 0 l 1014 0 l 1014 788 b 1167 944 1014 888 1068 944 l 1983 944 l 1983 1111 l 1167 1111 b 847 788 961 1111 847 994 l 847 194 b 710 307 768 194 732 219 l 564 875 b 296 1133 519 1049 428 1133 b 69 867 153 1133 69 1042 z m 1956 621 l 1542 621 b 1153 260 1292 621 1153 492 l 1153 0 l 1347 0 l 1347 260 b 1542 454 1347 385 1417 454 l 1956 454 z "},"":{"ha":2444,"x_min":0,"x_max":0,"o":"m 1178 317 l 1068 497 b 611 144 890 236 768 144 b 264 556 407 144 264 314 b 611 967 264 797 407 967 b 1146 496 797 967 932 836 b 1833 -22 1388 113 1549 -22 b 2389 556 2160 -22 2389 217 b 1833 1133 2389 894 2160 1133 b 1269 801 1615 1133 1447 1039 l 1385 628 b 1833 967 1551 871 1674 967 b 2181 556 2038 967 2181 797 b 1833 144 2181 314 2038 144 b 1285 639 1650 144 1515 268 b 611 1133 1063 996 874 1133 b 56 556 285 1133 56 894 b 611 -22 56 217 285 -22 b 1178 317 846 -22 997 69 z "},"":{"ha":1896,"x_min":0,"x_max":0,"o":"m 410 725 l 410 0 l 604 0 l 604 725 b 806 944 604 881 675 944 l 882 944 l 882 0 l 1076 0 l 1076 322 b 1269 510 1078 444 1147 510 l 1632 510 l 1632 0 l 1826 0 l 1826 1111 l 1632 1111 l 1632 676 l 1271 676 b 1076 618 1186 676 1125 657 l 1076 1111 l 806 1111 b 410 725 565 1111 410 972 z m 35 944 l 386 944 b 474 1067 408 994 440 1035 b 458 1111 503 1092 496 1111 l 35 1111 z "},"":{"ha":1893,"x_min":0,"x_max":0,"o":"m 417 0 l 611 0 l 903 806 b 1097 944 938 899 1001 944 l 1858 944 l 1858 1111 l 1097 1111 b 706 833 894 1111 775 1026 l 514 304 l 221 1111 l 14 1111 z m 1831 704 l 1417 704 b 1028 315 1167 704 1028 565 l 1028 0 l 1858 0 l 1858 167 l 1222 167 l 1222 343 b 1417 538 1222 468 1292 538 l 1831 538 z "},"":{"ha":2276,"x_min":0,"x_max":0,"o":"m 361 0 l 556 0 l 661 339 b 699 394 675 381 685 394 b 739 329 715 394 725 378 l 842 0 l 1036 0 l 1288 804 b 1485 944 1317 897 1389 944 l 2242 944 l 2242 1111 l 1485 1111 b 1093 835 1282 1111 1154 1028 l 939 343 l 911 431 b 744 603 881 532 822 589 l 903 1111 l 699 1111 l 458 342 l 218 1111 l 14 1111 z m 2214 704 l 1800 704 b 1411 315 1550 704 1411 565 l 1411 0 l 2242 0 l 2242 167 l 1606 167 l 1606 343 b 1800 538 1606 468 1675 538 l 2214 538 z "},"":{"ha":1907,"x_min":0,"x_max":0,"o":"m 729 0 l 958 0 l 614 556 l 769 807 b 1042 944 831 907 906 944 l 1872 944 l 1872 1111 l 1042 1111 b 561 839 817 1111 685 1036 l 500 740 l 269 1111 l 42 1111 l 372 578 l 14 0 l 243 0 l 486 393 z m 1844 704 l 1431 704 b 1042 315 1181 704 1042 565 l 1042 0 l 1872 0 l 1872 167 l 1236 167 l 1236 343 b 1431 538 1236 468 1306 538 l 1844 538 z "},"":{"ha":1847,"x_min":0,"x_max":0,"o":"m 729 0 l 958 0 l 614 556 l 769 807 b 1042 944 831 907 906 944 l 1303 944 b 1243 725 1264 889 1243 817 l 1243 0 l 1438 0 l 1438 725 b 1632 944 1438 881 1501 944 l 1813 944 l 1813 1111 l 1042 1111 b 561 839 817 1111 685 1036 l 500 740 l 269 1111 l 42 1111 l 372 578 l 14 0 l 243 0 l 486 393 z "},"":{"ha":1976,"x_min":0,"x_max":0,"o":"m 76 944 l 713 944 l 901 1072 b 892 1111 928 1090 922 1111 l 76 1111 z m 767 896 l 321 593 b 35 233 97 440 35 360 b 339 0 35 88 144 0 l 1007 0 l 1007 167 l 329 167 b 229 232 261 167 229 189 b 411 419 229 276 236 301 l 851 718 b 1275 944 1131 908 1167 944 l 1942 944 l 1942 1111 l 1244 1111 b 767 896 1057 1111 1018 1067 z m 1914 704 l 1500 704 b 1111 315 1250 704 1111 565 l 1111 0 l 1942 0 l 1942 167 l 1306 167 l 1306 343 b 1500 538 1306 468 1375 538 l 1914 538 z "},"a":{"ha":1028,"x_min":0,"x_max":0,"o":"m 219 447 b 408 517 279 483 353 510 l 514 807 l 639 463 l 588 463 b 49 96 296 463 147 369 l 14 0 l 221 0 l 261 111 b 540 296 311 250 394 296 l 700 296 l 807 0 l 1014 0 l 611 1111 l 417 1111 l 185 472 b 219 447 172 436 188 426 z "},"b":{"ha":1074,"x_min":0,"x_max":0,"o":"m 628 649 l 458 649 b 69 288 208 649 69 519 l 69 0 l 656 0 b 1039 324 892 0 1039 122 b 917 567 1039 428 1000 511 b 1011 797 981 622 1011 700 b 628 1111 1011 999 874 1111 l 69 1111 l 69 944 l 628 944 b 803 797 740 944 803 892 b 628 649 803 701 740 649 z m 264 167 l 264 288 b 458 482 264 413 333 482 l 656 482 b 831 324 768 482 831 425 b 656 167 831 224 768 167 z "},"c":{"ha":1060,"x_min":0,"x_max":0,"o":"m 1025 154 l 875 276 b 611 144 813 193 721 144 b 264 556 407 144 264 314 b 611 967 264 797 407 967 b 856 858 710 967 794 926 l 985 997 b 611 1133 889 1083 760 1133 b 56 556 285 1133 56 894 b 611 -22 56 217 285 -22 b 1025 154 782 -22 926 43 z "},"d":{"ha":1097,"x_min":0,"x_max":0,"o":"m 464 1111 l 69 1111 l 69 0 l 464 0 b 1042 556 814 0 1042 217 b 464 1111 1042 894 801 1111 z m 264 167 l 264 944 l 464 944 b 833 556 690 944 833 794 b 464 167 833 317 690 167 z "},"e":{"ha":935,"x_min":0,"x_max":0,"o":"m 872 704 l 458 704 b 69 315 208 704 69 565 l 69 0 l 900 0 l 900 167 l 264 167 l 264 343 b 458 538 264 468 333 538 l 872 538 z m 69 1111 l 69 944 l 900 944 l 900 1111 z "},"f":{"ha":935,"x_min":0,"x_max":0,"o":"m 872 621 l 458 621 b 69 260 208 621 69 492 l 69 0 l 264 0 l 264 260 b 458 454 264 385 333 454 l 872 454 z m 69 1111 l 69 944 l 900 944 l 900 1111 z "},"g":{"ha":1094,"x_min":0,"x_max":0,"o":"m 1025 154 l 1025 636 l 553 636 l 553 469 l 831 469 l 831 228 b 611 144 771 174 697 144 b 264 556 407 144 264 314 b 611 967 264 797 407 967 b 856 858 710 967 794 926 l 985 997 b 611 1133 889 1083 760 1133 b 56 556 285 1133 56 894 b 611 -22 56 217 285 -22 b 1025 154 782 -22 926 43 z "},"h":{"ha":1083,"x_min":0,"x_max":0,"o":"m 69 0 l 264 0 l 264 322 b 457 510 265 444 335 510 l 819 510 l 819 0 l 1014 0 l 1014 1111 l 819 1111 l 819 676 l 458 676 b 264 618 374 676 313 657 l 264 1111 l 69 1111 z "},"i":{"ha":333,"x_min":0,"x_max":0,"o":"m 69 1111 l 69 0 l 264 0 l 264 1111 z "},"j":{"ha":924,"x_min":0,"x_max":0,"o":"m 660 438 b 456 144 660 242 592 144 b 229 438 310 144 229 250 l 35 438 b 465 -22 35 143 193 -22 b 854 447 708 -22 854 158 l 854 1111 l 660 1111 z "},"k":{"ha":1056,"x_min":0,"x_max":0,"o":"m 69 0 l 264 0 l 264 254 b 436 510 265 364 313 438 l 801 0 l 1042 0 l 611 599 b 942 1111 854 733 921 869 l 747 1111 b 458 724 747 928 671 829 b 264 603 385 688 318 653 l 264 1111 l 69 1111 z "},"l":{"ha":907,"x_min":0,"x_max":0,"o":"m 264 1111 l 69 1111 l 69 0 l 872 0 l 872 167 l 264 167 z "},"m":{"ha":1392,"x_min":0,"x_max":0,"o":"m 69 0 l 264 0 l 264 917 b 374 707 307 917 319 878 l 599 0 l 793 0 l 1018 707 b 1128 917 1072 878 1085 917 l 1128 0 l 1322 0 l 1322 1111 l 1128 1111 b 863 861 994 1111 921 1042 l 696 338 l 529 861 b 264 1111 471 1042 397 1111 l 69 1111 z "},"n":{"ha":1083,"x_min":0,"x_max":0,"o":"m 69 867 l 69 0 l 236 0 l 236 867 b 289 967 236 942 260 967 b 369 853 319 967 346 944 l 522 254 b 847 0 564 90 686 0 l 1014 0 l 1014 1111 l 847 1111 l 847 194 b 710 307 768 194 732 219 l 564 875 b 296 1133 519 1049 428 1133 b 69 867 153 1133 69 1042 z "},"o":{"ha":1222,"x_min":0,"x_max":0,"o":"m 611 -22 b 1167 556 938 -22 1167 217 b 611 1133 1167 894 938 1133 b 56 556 285 1133 56 894 b 611 -22 56 217 285 -22 z m 611 144 b 264 556 407 144 264 314 b 611 967 264 797 407 967 b 958 556 815 967 958 797 b 611 144 958 314 815 144 z "},"p":{"ha":1074,"x_min":0,"x_max":0,"o":"m 656 621 l 458 621 b 69 260 208 621 69 492 l 69 0 l 264 0 l 264 260 b 458 454 264 385 333 454 l 656 454 b 1039 783 892 454 1039 581 b 656 1111 1039 985 892 1111 l 69 1111 l 69 944 l 656 944 b 831 783 768 944 831 886 b 656 621 831 679 768 621 z "},"q":{"ha":1222,"x_min":0,"x_max":0,"o":"m 651 147 l 890 47 b 1167 556 1061 140 1167 325 b 611 1133 1167 894 938 1133 b 56 556 285 1133 56 894 b 642 -143 56 242 226 19 b 1006 -347 886 -239 1006 -278 l 1200 -347 b 751 24 1200 -144 1007 -72 b 264 556 399 154 264 301 b 611 967 264 797 407 967 b 958 556 815 967 958 797 b 651 147 958 331 833 168 z "},"r":{"ha":1053,"x_min":0,"x_max":0,"o":"m 628 649 l 458 649 b 69 288 208 649 69 519 l 69 0 l 264 0 l 264 288 b 458 482 264 413 333 482 l 479 482 l 804 0 l 1039 0 l 710 486 b 1011 797 906 510 1011 618 b 628 1111 1011 999 874 1111 l 69 1111 l 69 944 l 628 944 b 803 797 740 944 803 892 b 628 649 803 701 740 649 z "},"s":{"ha":1028,"x_min":0,"x_max":0,"o":"m 243 875 b 392 725 243 819 274 785 l 707 567 b 993 233 931 454 993 360 b 689 0 993 88 883 0 l 35 0 l 35 167 l 699 167 b 799 232 767 167 799 189 b 617 394 799 275 776 314 l 300 554 b 49 875 125 643 49 742 b 354 1111 49 1025 156 1111 l 938 1111 l 938 944 l 326 944 b 243 875 281 944 243 921 z "},"t":{"ha":1014,"x_min":0,"x_max":0,"o":"m 799 944 l 979 944 l 979 1111 l 35 1111 l 35 944 l 469 944 b 410 725 431 889 410 817 l 410 0 l 604 0 l 604 725 b 799 944 604 881 668 944 z "},"u":{"ha":1083,"x_min":0,"x_max":0,"o":"m 819 438 b 542 144 819 242 728 144 b 264 438 356 144 264 242 l 264 1111 l 69 1111 l 69 460 b 543 -22 69 143 239 -22 b 1014 460 844 -22 1014 143 l 1014 1111 l 819 1111 z "},"v":{"ha":1028,"x_min":0,"x_max":0,"o":"m 417 0 l 611 0 l 1014 1111 l 807 1111 l 514 303 l 221 1111 l 14 1111 z "},"w":{"ha":1397,"x_min":0,"x_max":0,"o":"m 361 0 l 556 0 l 661 339 b 699 394 675 381 685 394 b 739 329 715 394 725 378 l 842 0 l 1036 0 l 1383 1111 l 1179 1111 l 939 343 l 911 431 b 744 603 881 532 822 589 l 903 1111 l 699 1111 l 458 342 l 218 1111 l 14 1111 z "},"x":{"ha":972,"x_min":0,"x_max":0,"o":"m 729 0 l 958 0 l 614 556 l 958 1111 l 731 1111 l 500 740 l 269 1111 l 42 1111 l 372 578 l 14 0 l 243 0 l 486 393 z "},"y":{"ha":972,"x_min":0,"x_max":0,"o":"m 743 1111 l 496 603 l 486 582 l 229 1111 l 14 1111 l 399 317 b 389 171 392 271 389 224 l 389 0 l 583 0 l 583 171 b 674 524 583 308 606 385 l 958 1111 z "},"z":{"ha":1042,"x_min":0,"x_max":0,"o":"m 76 944 l 785 944 b 601 713 785 850 750 789 l 321 567 b 35 233 99 451 35 360 b 339 0 35 88 144 0 l 1007 0 l 1007 167 l 329 167 b 229 232 261 167 229 189 b 411 394 229 275 253 313 l 683 536 b 979 944 908 654 979 774 l 979 1111 l 76 1111 z "},"":{"ha":1056,"x_min":0,"x_max":0,"o":"m 69 0 l 264 0 l 264 254 b 517 551 265 385 335 467 b 942 1111 836 703 918 840 l 747 1111 b 458 724 747 928 671 829 b 264 603 385 688 318 653 l 264 1111 l 69 1111 z m 651 542 l 522 478 b 496 428 489 461 475 457 l 1051 -350 l 1292 -350 z "},"":{"ha":1053,"x_min":0,"x_max":0,"o":"m 628 649 l 458 649 b 69 288 208 649 69 519 l 69 0 l 264 0 l 264 288 b 458 482 264 413 333 482 l 628 482 b 1011 797 874 482 1011 594 b 628 1111 1011 999 874 1111 l 69 1111 l 69 944 l 628 944 b 803 797 740 944 803 892 b 628 649 803 701 740 649 z m 765 413 l 592 413 b 565 363 558 413 546 392 l 1042 -350 l 1276 -350 z "},"":{"ha":2018,"x_min":0,"x_max":0,"o":"m 69 867 l 69 0 l 236 0 l 236 867 b 289 967 236 942 260 967 b 369 853 319 967 346 944 l 522 254 b 847 0 564 90 686 0 l 1014 0 l 1014 788 b 1167 944 1014 888 1068 944 l 1983 944 l 1983 1111 l 1167 1111 b 847 788 961 1111 847 994 l 847 194 b 710 307 768 194 732 219 l 564 875 b 296 1133 519 1049 428 1133 b 69 867 153 1133 69 1042 z m 1956 704 l 1542 704 b 1153 315 1292 704 1153 565 l 1153 0 l 1983 0 l 1983 167 l 1347 167 l 1347 343 b 1542 538 1347 468 1417 538 l 1956 538 z "},"":{"ha":2018,"x_min":0,"x_max":0,"o":"m 69 867 l 69 0 l 236 0 l 236 867 b 289 967 236 942 260 967 b 369 853 319 967 346 944 l 522 254 b 847 0 564 90 686 0 l 1014 0 l 1014 788 b 1167 944 1014 888 1068 944 l 1983 944 l 1983 1111 l 1167 1111 b 847 788 961 1111 847 994 l 847 194 b 710 307 768 194 732 219 l 564 875 b 296 1133 519 1049 428 1133 b 69 867 153 1133 69 1042 z m 1956 621 l 1542 621 b 1153 260 1292 621 1153 492 l 1153 0 l 1347 0 l 1347 260 b 1542 454 1347 385 1417 454 l 1956 454 z "},"":{"ha":2444,"x_min":0,"x_max":0,"o":"m 1178 317 l 1068 497 b 611 144 890 236 768 144 b 264 556 407 144 264 314 b 611 967 264 797 407 967 b 1146 496 797 967 932 836 b 1833 -22 1388 113 1549 -22 b 2389 556 2160 -22 2389 217 b 1833 1133 2389 894 2160 1133 b 1269 801 1615 1133 1447 1039 l 1385 628 b 1833 967 1551 871 1674 967 b 2181 556 2038 967 2181 797 b 1833 144 2181 314 2038 144 b 1285 639 1650 144 1515 268 b 611 1133 1063 996 874 1133 b 56 556 285 1133 56 894 b 611 -22 56 217 285 -22 b 1178 317 846 -22 997 69 z "},"":{"ha":1896,"x_min":0,"x_max":0,"o":"m 410 725 l 410 0 l 604 0 l 604 725 b 806 944 604 881 675 944 l 882 944 l 882 0 l 1076 0 l 1076 322 b 1269 510 1078 444 1147 510 l 1632 510 l 1632 0 l 1826 0 l 1826 1111 l 1632 1111 l 1632 676 l 1271 676 b 1076 618 1186 676 1125 657 l 1076 1111 l 806 1111 b 410 725 565 1111 410 972 z m 35 944 l 386 944 b 474 1067 408 994 440 1035 b 458 1111 503 1092 496 1111 l 35 1111 z "},"":{"ha":1893,"x_min":0,"x_max":0,"o":"m 417 0 l 611 0 l 903 806 b 1097 944 938 899 1001 944 l 1858 944 l 1858 1111 l 1097 1111 b 706 833 894 1111 775 1026 l 514 303 l 221 1111 l 14 1111 z m 1831 704 l 1417 704 b 1028 315 1167 704 1028 565 l 1028 0 l 1858 0 l 1858 167 l 1222 167 l 1222 343 b 1417 538 1222 468 1292 538 l 1831 538 z "},"":{"ha":2276,"x_min":0,"x_max":0,"o":"m 361 0 l 556 0 l 661 339 b 699 394 675 381 685 394 b 739 329 715 394 725 378 l 842 0 l 1036 0 l 1288 804 b 1485 944 1317 897 1389 944 l 2242 944 l 2242 1111 l 1485 1111 b 1093 835 1282 1111 1154 1028 l 939 343 l 911 431 b 744 603 881 532 822 589 l 903 1111 l 699 1111 l 458 342 l 218 1111 l 14 1111 z m 2214 704 l 1800 704 b 1411 315 1550 704 1411 565 l 1411 0 l 2242 0 l 2242 167 l 1606 167 l 1606 343 b 1800 538 1606 468 1675 538 l 2214 538 z "},"":{"ha":1907,"x_min":0,"x_max":0,"o":"m 729 0 l 958 0 l 614 556 l 769 807 b 1042 944 831 907 906 944 l 1872 944 l 1872 1111 l 1042 1111 b 561 839 817 1111 685 1036 l 500 740 l 269 1111 l 42 1111 l 372 578 l 14 0 l 243 0 l 486 393 z m 1844 704 l 1431 704 b 1042 315 1181 704 1042 565 l 1042 0 l 1872 0 l 1872 167 l 1236 167 l 1236 343 b 1431 538 1236 468 1306 538 l 1844 538 z "},"":{"ha":1847,"x_min":0,"x_max":0,"o":"m 729 0 l 958 0 l 614 556 l 769 807 b 1042 944 831 907 906 944 l 1303 944 b 1243 725 1264 889 1243 817 l 1243 0 l 1438 0 l 1438 725 b 1632 944 1438 881 1501 944 l 1813 944 l 1813 1111 l 1042 1111 b 561 839 817 1111 685 1036 l 500 740 l 269 1111 l 42 1111 l 372 578 l 14 0 l 243 0 l 486 393 z "},"":{"ha":1976,"x_min":0,"x_max":0,"o":"m 76 944 l 713 944 l 901 1072 b 892 1111 928 1090 922 1111 l 76 1111 z m 767 896 l 321 593 b 35 233 97 440 35 360 b 339 0 35 88 144 0 l 1007 0 l 1007 167 l 329 167 b 229 232 261 167 229 189 b 411 419 229 276 236 301 l 851 718 b 1275 944 1131 908 1167 944 l 1942 944 l 1942 1111 l 1244 1111 b 767 896 1057 1111 1018 1067 z m 1914 704 l 1500 704 b 1111 315 1250 704 1111 565 l 1111 0 l 1942 0 l 1942 167 l 1306 167 l 1306 343 b 1500 538 1306 468 1375 538 l 1914 538 z "},".":{"ha":347,"x_min":0,"x_max":0,"o":"m 174 -22 b 278 82 231 -22 278 25 b 174 186 278 139 231 186 b 69 82 117 186 69 139 b 174 -22 69 25 117 -22 z "},",":{"ha":347,"x_min":0,"x_max":0,"o":"m 174 -22 b 106 -144 189 -22 138 -103 l 182 -144 b 278 78 254 -57 278 25 b 174 186 278 139 231 186 b 69 82 117 186 69 139 b 174 -22 69 25 117 -22 z "},":":{"ha":403,"x_min":0,"x_max":0,"o":"m 201 188 b 306 292 258 188 306 235 b 201 396 306 349 258 396 b 97 292 144 396 97 349 b 201 188 97 235 144 188 z m 201 715 b 306 819 258 715 306 763 b 201 924 306 876 258 924 b 97 819 144 924 97 876 b 201 715 97 763 144 715 z "},";":{"ha":403,"x_min":0,"x_max":0,"o":"m 201 188 b 133 65 217 188 165 107 l 210 65 b 306 288 282 153 306 235 b 201 396 306 349 258 396 b 97 292 144 396 97 349 b 201 188 97 235 144 188 z m 201 715 b 306 819 258 715 306 763 b 201 924 306 876 258 924 b 97 819 144 924 97 876 b 201 715 97 763 144 715 z "},"!":{"ha":347,"x_min":0,"x_max":0,"o":"m 174 -22 b 278 82 231 -22 278 25 b 174 186 278 139 231 186 b 69 82 117 186 69 139 b 174 -22 69 25 117 -22 z m 76 1111 l 90 325 l 257 325 l 271 1111 z "},"?":{"ha":1042,"x_min":0,"x_max":0,"o":"m 383 325 l 550 325 b 728 539 550 436 610 463 b 972 867 869 631 972 713 b 647 1111 972 1024 856 1111 l 69 1111 l 69 944 l 647 944 b 764 864 728 944 764 918 b 607 692 764 793 713 763 b 383 325 467 599 383 539 z m 467 -22 b 571 82 524 -22 571 25 b 467 186 571 139 524 186 b 363 82 410 186 363 139 b 467 -22 363 25 410 -22 z "},"*":{"ha":631,"x_min":0,"x_max":0,"o":"m 260 1111 l 260 956 l 125 1033 l 69 938 l 204 860 l 69 781 l 125 685 l 260 763 l 260 607 l 371 607 l 371 763 l 506 685 l 561 781 l 426 860 l 561 938 l 506 1033 l 371 956 l 371 1111 z "},"#":{"ha":1301,"x_min":0,"x_max":0,"o":"m 450 1076 l 408 840 l 168 840 l 139 674 l 379 674 l 338 438 l 97 438 l 69 271 l 308 271 l 267 35 l 436 35 l 478 271 l 722 271 l 681 35 l 850 35 l 892 271 l 1132 271 l 1160 438 l 921 438 l 963 674 l 1203 674 l 1232 840 l 992 840 l 1033 1076 l 864 1076 l 822 840 l 578 840 l 619 1076 z m 507 438 l 549 674 l 793 674 l 751 438 z "},"/":{"ha":604,"x_min":0,"x_max":0,"o":"m 364 1215 l 69 -104 l 240 -104 l 535 1215 z "},"\\":{"ha":604,"x_min":0,"x_max":0,"o":"m 240 1215 l 69 1215 l 364 -104 l 535 -104 z "},"-":{"ha":471,"x_min":0,"x_max":0,"o":"m 69 639 l 69 472 l 401 472 l 401 639 z "},"–":{"ha":804,"x_min":0,"x_max":0,"o":"m 69 639 l 69 472 l 735 472 l 735 639 z "},"—":{"ha":1468,"x_min":0,"x_max":0,"o":"m 69 639 l 69 472 l 1399 472 l 1399 639 z "},"_":{"ha":804,"x_min":0,"x_max":0,"o":"m 69 -21 l 69 -187 l 735 -187 l 735 -21 z "},"(":{"ha":486,"x_min":0,"x_max":0,"o":"m 417 1215 l 250 1215 b 69 556 119 993 69 783 b 250 -104 69 328 119 118 l 417 -104 b 236 556 286 132 236 328 b 417 1215 236 783 286 979 z "},")":{"ha":486,"x_min":0,"x_max":0,"o":"m 236 1215 l 69 1215 b 250 556 200 979 250 783 b 69 -104 250 328 200 132 l 236 -104 b 417 556 367 118 417 328 b 236 1215 417 783 367 993 z "},"{":{"ha":513,"x_min":0,"x_max":0,"o":"m 256 553 l 256 558 b 350 692 306 581 350 617 b 332 775 350 718 344 743 l 243 999 b 272 1049 232 1028 232 1049 l 443 1049 l 443 1215 l 279 1215 b 89 935 115 1215 29 1085 l 168 736 b 89 639 197 664 149 639 l 89 472 b 168 375 149 472 197 447 l 89 176 b 279 -104 29 26 115 -104 l 443 -104 l 443 63 l 272 63 b 243 113 232 63 232 83 l 332 336 b 350 419 344 368 350 393 b 256 553 350 494 306 531 z "},"}":{"ha":513,"x_min":0,"x_max":0,"o":"m 257 558 l 257 553 b 163 419 207 531 163 494 b 181 336 163 393 168 368 l 269 113 b 240 63 281 83 281 63 l 69 63 l 69 -104 l 233 -104 b 424 176 397 -104 483 26 l 344 375 b 424 472 315 447 364 472 l 424 639 b 344 736 364 639 315 664 l 424 935 b 233 1215 483 1085 397 1215 l 69 1215 l 69 1049 l 240 1049 b 269 999 281 1049 281 1028 l 181 775 b 163 692 168 743 163 718 b 257 558 163 617 207 581 z "},"[":{"ha":438,"x_min":0,"x_max":0,"o":"m 69 1215 l 69 -104 l 368 -104 l 368 63 l 236 63 l 236 1049 l 368 1049 l 368 1215 z "},"]":{"ha":438,"x_min":0,"x_max":0,"o":"m 368 1215 l 69 1215 l 69 1049 l 201 1049 l 201 63 l 69 63 l 69 -104 l 368 -104 z "},"‚":{"ha":347,"x_min":0,"x_max":0,"o":"m 174 -22 b 106 -144 189 -22 138 -103 l 182 -144 b 278 78 254 -57 278 25 b 174 186 278 139 231 186 b 69 82 117 186 69 139 b 174 -22 69 25 117 -22 z "},"„":{"ha":625,"x_min":0,"x_max":0,"o":"m 174 -22 b 106 -144 189 -22 138 -103 l 182 -144 b 278 78 254 -57 278 25 b 174 186 278 139 231 186 b 69 82 117 186 69 139 b 174 -22 69 25 117 -22 z m 451 -22 b 383 -144 467 -22 415 -103 l 460 -144 b 556 78 532 -57 556 25 b 451 186 556 139 508 186 b 347 82 394 186 347 139 b 451 -22 347 25 394 -22 z "},"“":{"ha":625,"x_min":0,"x_max":0,"o":"m 451 1011 b 519 1133 436 1011 488 1092 l 443 1133 b 347 911 371 1046 347 964 b 451 803 347 850 394 803 b 556 907 508 803 556 850 b 451 1011 556 964 508 1011 z m 174 1011 b 242 1133 158 1011 210 1092 l 165 1133 b 69 911 93 1046 69 964 b 174 803 69 850 117 803 b 278 907 231 803 278 850 b 174 1011 278 964 231 1011 z "},"”":{"ha":625,"x_min":0,"x_max":0,"o":"m 174 925 b 106 803 189 925 138 844 l 182 803 b 278 1025 254 890 278 972 b 174 1133 278 1086 231 1133 b 69 1029 117 1133 69 1086 b 174 925 69 972 117 925 z m 451 925 b 383 803 467 925 415 844 l 460 803 b 556 1025 532 890 556 972 b 451 1133 556 1086 508 1133 b 347 1029 394 1133 347 1086 b 451 925 347 972 394 925 z "},"‘":{"ha":347,"x_min":0,"x_max":0,"o":"m 174 1011 b 242 1133 158 1011 210 1092 l 165 1133 b 69 911 93 1046 69 964 b 174 803 69 850 117 803 b 278 907 231 803 278 850 b 174 1011 278 964 231 1011 z "},"’":{"ha":347,"x_min":0,"x_max":0,"o":"m 174 925 b 106 803 189 925 138 844 l 182 803 b 278 1025 254 890 278 972 b 174 1133 278 1086 231 1133 b 69 1029 117 1133 69 1086 b 174 925 69 972 117 925 z "},"‹":{"ha":622,"x_min":0,"x_max":0,"o":"m 347 938 l 69 556 l 347 174 l 553 174 l 275 556 l 553 938 z "},"›":{"ha":622,"x_min":0,"x_max":0,"o":"m 275 938 l 69 938 l 347 556 l 69 174 l 275 174 l 553 556 z "},"\"":{"ha":625,"x_min":0,"x_max":0,"o":"m 174 925 b 106 803 189 925 138 844 l 182 803 b 278 1025 254 890 278 972 b 174 1133 278 1086 231 1133 b 69 1029 117 1133 69 1086 b 174 925 69 972 117 925 z m 451 925 b 383 803 467 925 415 844 l 460 803 b 556 1025 532 890 556 972 b 451 1133 556 1086 508 1133 b 347 1029 394 1133 347 1086 b 451 925 347 972 394 925 z "},"'":{"ha":347,"x_min":0,"x_max":0,"o":"m 174 925 b 106 803 189 925 138 844 l 182 803 b 278 1025 254 890 278 972 b 174 1133 278 1086 231 1133 b 69 1029 117 1133 69 1086 b 174 925 69 972 117 925 z "},"@":{"ha":1278,"x_min":0,"x_max":0,"o":"m 735 224 l 679 390 b 497 556 565 388 497 450 b 631 718 497 651 550 718 b 767 556 708 718 767 656 l 767 383 b 983 226 778 292 871 226 b 1222 556 1128 226 1222 353 b 639 1133 1222 879 965 1133 b 56 556 313 1133 56 879 b 639 -22 56 232 313 -22 b 807 6 700 -22 756 -12 l 771 113 b 639 89 731 97 682 89 b 194 556 386 89 194 282 b 639 1022 194 829 386 1022 b 1083 556 892 1022 1083 829 b 996 338 1083 403 1033 338 b 961 386 976 338 961 353 l 961 863 l 767 863 l 767 849 b 614 885 722 872 672 885 b 303 556 436 885 303 749 b 735 224 303 339 471 206 z "},"&":{"ha":1025,"x_min":0,"x_max":0,"o":"m 796 0 l 990 0 b 800 369 990 172 919 250 l 990 660 l 846 744 l 681 490 l 465 707 b 321 890 350 822 321 847 b 386 944 321 921 343 944 l 867 944 l 867 1111 l 386 1111 b 126 885 236 1111 126 1029 b 290 607 126 758 214 683 b 42 294 135 569 42 439 b 360 -22 42 117 182 -22 b 692 203 490 -22 574 22 b 796 0 775 118 796 83 z m 236 294 b 426 469 236 392 314 467 l 571 324 l 539 274 b 375 144 478 181 439 144 b 236 294 288 144 236 207 z "},"|":{"ha":306,"x_min":0,"x_max":0,"o":"m 69 1215 l 69 -104 l 236 -104 l 236 1215 z "},"¢":{"ha":1060,"x_min":0,"x_max":0,"o":"m 1025 154 l 875 276 b 653 147 821 204 746 158 l 653 964 b 856 858 733 954 804 915 l 985 997 b 653 1132 899 1075 783 1124 l 653 1215 l 486 1215 l 486 1121 b 56 556 229 1068 56 849 b 486 -10 56 263 229 43 l 486 -104 l 653 -104 l 653 -21 b 1025 154 806 -11 935 53 z m 264 556 b 486 943 264 744 351 889 l 486 168 b 264 556 351 222 264 367 z "},"$":{"ha":1042,"x_min":0,"x_max":0,"o":"m 35 0 l 444 0 l 444 -104 l 611 -104 l 611 0 l 703 0 b 1007 233 897 0 1007 88 b 721 567 1007 360 944 456 l 611 622 l 611 944 l 965 944 l 965 1111 l 611 1111 l 611 1215 l 444 1215 l 444 1111 l 368 1111 b 63 875 169 1111 63 1025 b 314 554 63 742 139 644 l 444 489 l 444 167 l 35 167 z m 257 875 b 340 944 257 921 294 944 l 444 944 l 444 706 l 406 725 b 257 875 288 785 257 819 z m 611 167 l 611 404 l 631 394 b 813 232 790 314 813 275 b 713 167 813 189 781 167 z "},"€":{"ha":1149,"x_min":0,"x_max":0,"o":"m 1114 154 l 964 276 b 700 144 901 193 810 144 b 389 361 557 144 443 229 l 657 361 l 657 528 l 353 528 l 353 556 l 353 583 l 657 583 l 657 750 l 389 750 b 700 967 443 882 557 967 b 944 858 799 967 883 926 l 1074 997 b 700 1133 978 1083 849 1133 b 172 750 440 1133 243 983 l 35 750 l 35 583 l 144 583 l 144 556 l 144 528 l 35 528 l 35 361 l 172 361 b 700 -22 243 128 440 -22 b 1114 154 871 -22 1015 43 z "},"¥":{"ha":972,"x_min":0,"x_max":0,"o":"m 743 1111 l 496 603 l 486 582 l 229 1111 l 14 1111 l 275 572 l 175 572 l 175 406 l 356 406 l 382 350 l 175 350 l 175 183 l 389 183 l 389 171 l 389 0 l 583 0 l 583 171 l 583 183 l 797 183 l 797 350 l 604 350 b 622 406 608 367 615 386 l 797 406 l 797 572 l 697 572 l 958 1111 z "},"+":{"ha":958,"x_min":0,"x_max":0,"o":"m 396 938 l 396 639 l 97 639 l 97 472 l 396 472 l 396 174 l 563 174 l 563 472 l 861 472 l 861 639 l 563 639 l 563 938 z "},"−":{"ha":958,"x_min":0,"x_max":0,"o":"m 861 639 l 97 639 l 97 472 l 861 472 z "},"×":{"ha":853,"x_min":0,"x_max":0,"o":"m 638 885 l 426 674 l 215 885 l 97 767 l 308 556 l 97 344 l 215 226 l 426 438 l 638 226 l 756 344 l 544 556 l 756 767 z "},"÷":{"ha":958,"x_min":0,"x_max":0,"o":"m 861 639 l 97 639 l 97 472 l 861 472 z m 479 111 b 583 215 536 111 583 158 b 479 319 583 272 536 319 b 375 215 422 319 375 272 b 479 111 375 158 422 111 z m 479 792 b 583 896 536 792 583 839 b 479 1000 583 953 536 1000 b 375 896 422 1000 375 953 b 479 792 375 839 422 792 z "},"=":{"ha":958,"x_min":0,"x_max":0,"o":"m 861 847 l 97 847 l 97 681 l 861 681 z m 861 431 l 97 431 l 97 264 l 861 264 z "},">":{"ha":958,"x_min":0,"x_max":0,"o":"m 97 758 l 619 556 l 97 353 l 97 174 l 861 472 l 861 639 l 97 938 z "},"<":{"ha":958,"x_min":0,"x_max":0,"o":"m 861 758 l 861 938 l 97 639 l 97 472 l 861 174 l 861 353 l 339 556 z "},"±":{"ha":903,"x_min":0,"x_max":0,"o":"m 368 938 l 368 743 l 69 743 l 69 576 l 368 576 l 368 382 l 535 382 l 535 576 l 833 576 l 833 743 l 535 743 l 535 938 z m 833 340 l 69 340 l 69 174 l 833 174 z "},"~":{"ha":925,"x_min":0,"x_max":0,"o":"m 856 526 l 733 640 b 613 538 668 571 635 538 b 310 739 550 538 474 739 b 69 574 204 739 147 672 l 200 471 b 310 572 261 547 283 572 b 613 371 372 572 449 371 b 856 526 707 371 769 435 z "},"^":{"ha":653,"x_min":0,"x_max":0,"o":"m 404 668 l 583 668 l 410 1111 l 243 1111 l 69 668 l 249 668 l 326 869 z "},"%":{"ha":1329,"x_min":0,"x_max":0,"o":"m 206 0 l 404 0 l 1124 1111 l 925 1111 z m 313 647 b 556 890 446 647 556 757 b 313 1133 556 1024 446 1133 b 69 890 179 1133 69 1024 b 313 647 69 757 179 647 z m 313 786 b 236 890 265 786 236 826 b 313 994 236 954 265 994 b 389 890 360 994 389 954 b 313 786 389 826 360 786 z m 1017 -22 b 1260 221 1150 -22 1260 88 b 1017 464 1260 354 1150 464 b 774 221 883 464 774 354 b 1017 -22 774 88 883 -22 z m 1017 117 b 940 221 969 117 940 157 b 1017 325 940 285 969 325 b 1093 221 1064 325 1093 285 b 1017 117 1093 157 1064 117 z "}}}
